<svg id="Layer_1" data-name="Layer 1" xmlns="http://www.w3.org/2000/svg" width="1.6in" height="1.6in" viewBox="0 0 118.3 118.3"><title>ig-icon</title><path d="M59.2,48.9a10.3,10.3,0,0,0,0,20.5h0a10.3,10.3,0,0,0,0-20.5Z"/><path d="M71.5,32.5H46.9A14.4,14.4,0,0,0,32.6,46.9V71.4A14.3,14.3,0,0,0,46.9,85.8H71.5A14.3,14.3,0,0,0,85.8,71.4V46.9A14.4,14.4,0,0,0,71.5,32.5Zm4.1,26.7A16.4,16.4,0,1,1,59.2,42.8,16.4,16.4,0,0,1,75.6,59.2Zm1.2-15.5A2.2,2.2,0,1,1,79,41.6,2.1,2.1,0,0,1,76.8,43.7Z"/><path d="M59.2.7a58.5,58.5,0,1,0,58.5,58.5A58.4,58.4,0,0,0,59.2.7ZM91.9,71.4A20.4,20.4,0,0,1,71.5,91.9H46.9A20.5,20.5,0,0,1,26.4,71.4V46.9A20.5,20.5,0,0,1,46.9,26.4H71.5A20.4,20.4,0,0,1,91.9,46.9Z"/></svg>