<svg id="Layer_1" data-name="Layer 1" xmlns="http://www.w3.org/2000/svg" width="1.6in" height="1.6in" viewBox="0 0 118.3 118.3"><title>mail-icon</title><path d="M62.6,117.7H55.7l-.8-.2a54.7,54.7,0,0,1-23.1-6.7C12.6,100.1,2.1,83.6.8,61.6A53.2,53.2,0,0,1,7.6,31.7C18.3,12.5,34.8,2.1,56.7.8A53.8,53.8,0,0,1,86.6,7.5c16.5,9.1,26.6,23,30.1,41.5.5,2.2.7,4.5,1,6.7v6.9a3,3,0,0,0-.2,1,56.1,56.1,0,0,1-6.7,23c-9.1,16.5-22.9,26.6-41.4,30.1C67.1,117.2,64.8,117.4,62.6,117.7ZM88.1,85.1V41.4l-1.4,1.2C78.5,49,70.4,55.5,62.3,62c-2.3,1.8-4.4,1.8-6.7,0L30.4,42.9l-1.1-.8v43ZM85.5,33.2H32L59.1,54Z"/></svg>