<svg id="Layer_1" data-name="Layer 1" xmlns="http://www.w3.org/2000/svg" width="1.6in" height="1.6in" viewBox="0 0 118.3 118.3"><title>sc-ison</title><path d="M59.2.7a58.5,58.5,0,1,0,58.5,58.5A58.4,58.4,0,0,0,59.2.7ZM93.9,77.8a4.2,4.2,0,0,1-2.3,2,30.5,30.5,0,0,1-6.9,1.8,15.5,15.5,0,0,0-.4,1.5,12.4,12.4,0,0,1-.4,1.6A1.7,1.7,0,0,1,82.1,86h0l-1.7-.2a22,22,0,0,0-3.6-.4l-2.6.2c-1.8.3-3.2,1.4-5,2.6s-5.3,3.7-9.6,3.7h-.9c-4.3,0-7.1-2-9.6-3.7s-3.2-2.3-4.9-2.6l-2.7-.2a22,22,0,0,0-3.6.4l-1.6.3a2,2,0,0,1-1.9-1.4,12.4,12.4,0,0,1-.4-1.6,7.5,7.5,0,0,0-.4-1.6,26.5,26.5,0,0,1-6.9-1.7,4.4,4.4,0,0,1-2.3-2.1,1.4,1.4,0,0,1-.2-.7,1.7,1.7,0,0,1,1.4-1.7A14.3,14.3,0,0,0,31.5,73a21.6,21.6,0,0,0,4.3-3.7,24.4,24.4,0,0,0,3.5-5.5h0a2.9,2.9,0,0,0,.4-2.3c-.5-1.2-2.5-1.8-3.8-2.3l-1-.3a6.1,6.1,0,0,1-2.6-1.5,2.5,2.5,0,0,1-1-2.4A2.6,2.6,0,0,1,32.7,53a4.2,4.2,0,0,1,2.1-.6l1.2.2a7.1,7.1,0,0,0,3.1.8,1.7,1.7,0,0,0,1.2-.2c0-.5-.1-1-.1-1.5-.3-4.8-.7-10.6.9-14.1a17.4,17.4,0,0,1,4.3-6.1,16.3,16.3,0,0,1,5.1-3.4,19.7,19.7,0,0,1,7.9-1.7h1.4a19.8,19.8,0,0,1,8,1.7,15.7,15.7,0,0,1,5.1,3.4,18.8,18.8,0,0,1,4.3,6.1c1.5,3.5,1.2,9.3.9,14.1v.2a5.7,5.7,0,0,0-.1,1.3,1.6,1.6,0,0,0,1,.2,6,6,0,0,0,2.9-.8,3.2,3.2,0,0,1,1.4-.3,4,4,0,0,1,1.5.3,3,3,0,0,1,2.3,2.6,3.4,3.4,0,0,1-.9,1.9,8.1,8.1,0,0,1-2.8,1.7l-1,.3c-1.3.4-3.3,1.1-3.8,2.3a2.9,2.9,0,0,0,.4,2.3h0c.2.4,4.4,10,13.7,11.5A1.6,1.6,0,0,1,94.1,77,2.4,2.4,0,0,1,93.9,77.8Z"/></svg>