<svg id="Layer_1" data-name="Layer 1" xmlns="http://www.w3.org/2000/svg" width="1.6in" height="1.6in" viewBox="0 0 118.3 118.3"><title>mail-icon copy</title><path d="M.7,59.2A58.5,58.5,0,1,1,59,117.7,58.4,58.4,0,0,1,.7,59.2Zm28.4-9.3,4.1-2.6a2,2,0,0,1,2.9.3,6.6,6.6,0,0,1,1.5,1.9,24.1,24.1,0,0,1,2.1,5c2.2,7.3,4.1,14.7,6.2,22a23.4,23.4,0,0,0,3.9,7.9c2.6,3.3,5.4,4.2,9.4,2.9a24,24,0,0,0,8.2-4.7c4.7-3.9,8.5-8.6,12.2-13.4A86.7,86.7,0,0,0,90.1,52.3,23.9,23.9,0,0,0,92,38.6c-.7-4.3-3-7.1-6.9-7.8a16.2,16.2,0,0,0-12.8,2.5c-3.7,2.5-5.9,6.2-7.5,10.3-.3.7-.5,1.5-.8,2.3a16.4,16.4,0,0,1,2.8-.7,11,11,0,0,1,2.6-.2c2.5.1,3.8,1.5,4,3.9a10.6,10.6,0,0,1-.9,5,44.1,44.1,0,0,1-6.8,11.2l-.9.9c-1.9,1.8-3.2,1.7-4.3-.6a15.7,15.7,0,0,1-1.8-4.5c-1.2-5.8-2.3-11.6-3.4-17.4-.5-2.8-.9-5.6-2.3-8.1s-6.2-5.3-10.2-3.2a37.4,37.4,0,0,0-5.8,4c-3.6,3-7.1,6.3-10.7,9.4L26,46Z"/></svg>